<?xml version="1.0" standalone="no"?>
<svg xmlns:xlink="http://www.w3.org/1999/xlink" id="wave" style="transform:rotate(0deg); transition: 0.3s" viewBox="0 0 1440 320" version="1.1" xmlns="http://www.w3.org/2000/svg"><defs><linearGradient id="sw-gradient-0" x1="0" x2="0" y1="1" y2="0"><stop stop-color="rgba(243, 106, 62, 1)" offset="0%"/><stop stop-color="rgba(255, 179, 11, 1)" offset="100%"/></linearGradient></defs><path style="transform:translate(0, 0px); opacity:1" fill="url(#sw-gradient-0)" d="M0,192L80,170.7C160,149,320,107,480,122.7C640,139,800,213,960,229.3C1120,245,1280,203,1440,154.7C1600,107,1760,53,1920,53.3C2080,53,2240,107,2400,106.7C2560,107,2720,53,2880,69.3C3040,85,3200,171,3360,192C3520,213,3680,171,3840,160C4000,149,4160,171,4320,165.3C4480,160,4640,128,4800,122.7C4960,117,5120,139,5280,122.7C5440,107,5600,53,5760,32C5920,11,6080,21,6240,69.3C6400,117,6560,203,6720,208C6880,213,7040,139,7200,106.7C7360,75,7520,85,7680,117.3C7840,149,8000,203,8160,186.7C8320,171,8480,85,8640,80C8800,75,8960,149,9120,197.3C9280,245,9440,267,9600,261.3C9760,256,9920,224,10080,192C10240,160,10400,128,10560,122.7C10720,117,10880,139,11040,128C11200,117,11360,75,11440,53.3L11520,32L11520,320L11440,320C11360,320,11200,320,11040,320C10880,320,10720,320,10560,320C10400,320,10240,320,10080,320C9920,320,9760,320,9600,320C9440,320,9280,320,9120,320C8960,320,8800,320,8640,320C8480,320,8320,320,8160,320C8000,320,7840,320,7680,320C7520,320,7360,320,7200,320C7040,320,6880,320,6720,320C6560,320,6400,320,6240,320C6080,320,5920,320,5760,320C5600,320,5440,320,5280,320C5120,320,4960,320,4800,320C4640,320,4480,320,4320,320C4160,320,4000,320,3840,320C3680,320,3520,320,3360,320C3200,320,3040,320,2880,320C2720,320,2560,320,2400,320C2240,320,2080,320,1920,320C1760,320,1600,320,1440,320C1280,320,1120,320,960,320C800,320,640,320,480,320C320,320,160,320,80,320L0,320Z"/></svg>